<svg xmlns="http://www.w3.org/2000/svg" version="1.1" height="700" width="900" id="chart"><defs id="defs"><clipPath id="_ABSTRACT_RENDERER_ID_18"><rect height="433" width="556" y="134" x="172"></rect></clipPath></defs><g><rect fill="#ffffff" stroke-width="0" stroke="none" height="699" width="899" y="0.5" x="0.5"></rect><g><text fill="#000000" stroke-width="0" stroke="none" font-weight="bold" font-size="15" font-family="Arial" y="107.75" x="172" text-anchor="start">Среднее время ожидания задач по неделям и месяцам (Ломоносов)</text></g><g><g><text fill="#222222" stroke-width="0" stroke="none" font-size="15" font-family="Arial" y="146.75" x="764" text-anchor="start">ПН</text></g><rect fill="#3366cc" stroke-width="0" stroke="none" height="15" width="15" y="134" x="743"></rect><g><text fill="#222222" stroke-width="0" stroke="none" font-size="15" font-family="Arial" y="170.75" x="764" text-anchor="start">ВТ</text></g><rect fill="#dc3912" stroke-width="0" stroke="none" height="15" width="15" y="158" x="743"></rect><g><text fill="#222222" stroke-width="0" stroke="none" font-size="15" font-family="Arial" y="194.75" x="764" text-anchor="start">СР</text></g><rect fill="#ff9900" stroke-width="0" stroke="none" height="15" width="15" y="182" x="743"></rect><g><text fill="#222222" stroke-width="0" stroke="none" font-size="15" font-family="Arial" y="218.75" x="764" text-anchor="start">ЧТ</text></g><rect fill="#109618" stroke-width="0" stroke="none" height="15" width="15" y="206" x="743"></rect><g><text fill="#222222" stroke-width="0" stroke="none" font-size="15" font-family="Arial" y="242.75" x="764" text-anchor="start">ПТ</text></g><rect fill="#990099" stroke-width="0" stroke="none" height="15" width="15" y="230" x="743"></rect><g><text fill="#222222" stroke-width="0" stroke="none" font-size="15" font-family="Arial" y="266.75" x="764" text-anchor="start">СБ</text></g><rect fill="#0099c6" stroke-width="0" stroke="none" height="15" width="15" y="254" x="743"></rect><g><text fill="#222222" stroke-width="0" stroke="none" font-size="15" font-family="Arial" y="290.75" x="764" text-anchor="start">ВСК</text></g><rect fill="#dd4477" stroke-width="0" stroke="none" height="15" width="15" y="278" x="743"></rect></g><g><text fill="#222222" stroke-width="0" stroke="none" transform="rotate(-90, 61.75, 350.5)" font-style="italic" font-size="15" font-family="Arial" y="350.5" x="61.75" text-anchor="middle">Среднее время ожидания задач, секунд</text></g><rect fill="#cccccc" stroke-width="0" stroke="none" height="1" width="556" y="567" x="172"></rect><rect fill="#cccccc" stroke-width="0" stroke="none" height="1" width="556" y="459" x="172"></rect><rect fill="#cccccc" stroke-width="0" stroke="none" height="1" width="556" y="351" x="172"></rect><rect fill="#cccccc" stroke-width="0" stroke="none" height="1" width="556" y="242" x="172"></rect><rect fill="#cccccc" stroke-width="0" stroke="none" height="1" width="556" y="134" x="172"></rect><rect fill="#333333" stroke-width="0" stroke="none" height="1" width="556" y="567" x="172"></rect><g><rect fill="none" fill-opacity="1" stroke-width="0" stroke="none" height="433" width="556" y="134" x="172"></rect><g clip-path="url(#_ABSTRACT_RENDERER_ID_18)"><g></g><g></g><g><rect fill="#3366cc" stroke-width="0" stroke="none" height="58" width="11" y="509" x="200"></rect><rect fill="#3366cc" stroke-width="0" stroke="none" height="60" width="11" y="507" x="339"></rect><rect fill="#3366cc" stroke-width="0" stroke="none" height="11" width="11" y="556" x="478"></rect><rect fill="#dc3912" stroke-width="0" stroke="none" height="121" width="11" y="446" x="212"></rect><rect fill="#dc3912" stroke-width="0" stroke="none" height="184" width="11" y="383" x="351"></rect><rect fill="#dc3912" stroke-width="0" stroke="none" height="159" width="11" y="408" x="490"></rect><rect fill="#ff9900" stroke-width="0" stroke="none" height="232" width="11" y="335" x="224"></rect><rect fill="#ff9900" stroke-width="0" stroke="none" height="83" width="11" y="484" x="363"></rect><rect fill="#ff9900" stroke-width="0" stroke="none" height="325" width="11" y="242" x="502"></rect><rect fill="#109618" stroke-width="0" stroke="none" height="85" width="11" y="482" x="236"></rect><rect fill="#109618" stroke-width="0" stroke="none" height="16" width="11" y="551" x="375"></rect><rect fill="#109618" stroke-width="0" stroke="none" height="114" width="11" y="453" x="514"></rect><rect fill="#109618" stroke-width="0" stroke="none" height="245" width="11" y="322" x="653"></rect><rect fill="#990099" stroke-width="0" stroke="none" height="413" width="11" y="154" x="248"></rect><rect fill="#990099" stroke-width="0" stroke="none" height="14" width="11" y="553" x="387"></rect><rect fill="#990099" stroke-width="0" stroke="none" height="277" width="11" y="290" x="526"></rect><rect fill="#990099" stroke-width="0" stroke="none" height="121" width="11" y="446" x="665"></rect><rect fill="#0099c6" stroke-width="0" stroke="none" height="147" width="11" y="420" x="260"></rect><rect fill="#0099c6" stroke-width="0" stroke="none" height="6" width="11" y="561" x="399"></rect><rect fill="#0099c6" stroke-width="0" stroke="none" height="34" width="11" y="533" x="538"></rect><rect fill="#0099c6" stroke-width="0" stroke="none" height="0.3595070270270071" width="11" y="566.640492972973" x="677"></rect><rect fill="#dd4477" stroke-width="0" stroke="none" height="180" width="11" y="387" x="272"></rect><rect fill="#dd4477" stroke-width="0" stroke="none" height="0.26444161754625384" width="11" y="566.7355583824537" x="411"></rect><rect fill="#dd4477" stroke-width="0" stroke="none" height="8" width="11" y="559" x="550"></rect></g><g></g><g></g><g></g></g><g></g><g></g><g></g><g></g></g><g><text fill="#222222" stroke-width="0" stroke="none" font-size="15" font-family="Arial" y="588.75" x="241.5" text-anchor="middle">июнь</text></g><g><text fill="#222222" stroke-width="0" stroke="none" font-size="15" font-family="Arial" y="588.75" x="380.5" text-anchor="middle">июль</text></g><g><text fill="#222222" stroke-width="0" stroke="none" font-size="15" font-family="Arial" y="588.75" x="519.5" text-anchor="middle">август</text></g><g><text fill="#222222" stroke-width="0" stroke="none" font-size="15" font-family="Arial" y="588.75" x="658.5" text-anchor="middle">сентябрь</text></g><g><text fill="#444444" stroke-width="0" stroke="none" font-size="15" font-family="Arial" y="572.25" x="157" text-anchor="end">0</text></g><g><text fill="#444444" stroke-width="0" stroke="none" font-size="15" font-family="Arial" y="464" x="157" text-anchor="end">2,500</text></g><g><text fill="#444444" stroke-width="0" stroke="none" font-size="15" font-family="Arial" y="355.75" x="157" text-anchor="end">5,000</text></g><g><text fill="#444444" stroke-width="0" stroke="none" font-size="15" font-family="Arial" y="247.5" x="157" text-anchor="end">7,500</text></g><g><text fill="#444444" stroke-width="0" stroke="none" font-size="15" font-family="Arial" y="139.25" x="157" text-anchor="end">10,000</text></g></g><g></g></svg>